<svg width="480" height="468" viewBox="0 0 480 468" fill="none" xmlns="http://www.w3.org/2000/svg">
<path d="M240 0C208.483 0 177.274 6.20286 148.156 18.2544C119.038 30.306 92.5804 47.9702 70.2944 70.2386C25.2856 115.212 0 176.208 0 239.81C0 345.805 68.88 435.734 164.16 467.629C176.16 469.547 180 462.113 180 455.638V415.11C113.52 429.499 99.36 382.976 99.36 382.976C88.32 355.158 72.72 347.724 72.72 347.724C50.88 332.856 74.4 333.335 74.4 333.335C98.4 335.014 111.12 358.036 111.12 358.036C132 394.487 167.28 383.695 180.96 377.94C183.12 362.352 189.36 351.801 196.08 345.805C142.8 339.81 86.88 319.186 86.88 227.819C86.88 201.2 96 179.857 111.6 162.831C109.2 156.835 100.8 131.895 114 99.521C114 99.521 134.16 93.0461 180 123.982C198.96 118.706 219.6 116.068 240 116.068C260.4 116.068 281.04 118.706 300 123.982C345.84 93.0461 366 99.521 366 99.521C379.2 131.895 370.8 156.835 368.4 162.831C384 179.857 393.12 201.2 393.12 227.819C393.12 319.426 336.96 339.57 283.44 345.566C292.08 353 300 367.628 300 389.93V455.638C300 462.113 303.84 469.787 316.08 467.629C411.36 435.494 480 345.805 480 239.81C480 208.317 473.792 177.133 461.731 148.038C449.67 118.943 431.992 92.507 409.706 70.2386C387.42 47.9702 360.962 30.306 331.844 18.2544C302.726 6.20286 271.517 0 240 0Z" fill="#1F6586"/>
</svg>
