<svg width="26" height="20" viewBox="0 0 26 20" fill="none" xmlns="http://www.w3.org/2000/svg">
<path d="M4.74707 20V8.72559L1.18182 11.4315L0 9.88235L13 0L18.0818 3.86265V1.17647H21.2334V6.255L26 9.88235L24.7984 11.4315L21.2334 8.70588V20H14.3789V12.9412H11.6211V20H4.74707ZM6.71657 18.0391H9.65161V10.9803H16.3484V18.0391H19.2636V7.22559L13 2.46088L6.71657 7.22559V18.0391ZM10.538 8.04912H15.462C15.462 7.40853 15.2158 6.88069 14.7234 6.46559C14.231 6.05069 13.6565 5.84323 13 5.84323C12.3435 5.84323 11.769 6.04971 11.2766 6.46265C10.7842 6.87559 10.538 7.40441 10.538 8.04912Z" fill="#41484D"/>
</svg>
