<svg width="468" height="468" viewBox="0 0 468 468" fill="none" xmlns="http://www.w3.org/2000/svg">
<path d="M135.72 0H332.28C407.16 0 468 60.84 468 135.72V332.28C468 368.275 453.701 402.796 428.249 428.249C402.796 453.701 368.275 468 332.28 468H135.72C60.84 468 0 407.16 0 332.28V135.72C0 99.7248 14.299 65.2039 39.7515 39.7515C65.2039 14.299 99.7248 0 135.72 0ZM131.04 46.8C108.698 46.8 87.2714 55.6753 71.4733 71.4733C55.6753 87.2714 46.8 108.698 46.8 131.04V336.96C46.8 383.526 84.474 421.2 131.04 421.2H336.96C359.302 421.2 380.729 412.325 396.527 396.527C412.325 380.729 421.2 359.302 421.2 336.96V131.04C421.2 84.474 383.526 46.8 336.96 46.8H131.04ZM356.85 81.9C364.608 81.9 372.047 84.9817 377.533 90.4671C383.018 95.9526 386.1 103.392 386.1 111.15C386.1 118.908 383.018 126.347 377.533 131.833C372.047 137.318 364.608 140.4 356.85 140.4C349.092 140.4 341.653 137.318 336.167 131.833C330.682 126.347 327.6 118.908 327.6 111.15C327.6 103.392 330.682 95.9526 336.167 90.4671C341.653 84.9817 349.092 81.9 356.85 81.9ZM234 117C265.03 117 294.79 129.327 316.731 151.269C338.673 173.21 351 202.97 351 234C351 265.03 338.673 294.79 316.731 316.731C294.79 338.673 265.03 351 234 351C202.97 351 173.21 338.673 151.269 316.731C129.327 294.79 117 265.03 117 234C117 202.97 129.327 173.21 151.269 151.269C173.21 129.327 202.97 117 234 117ZM234 163.8C215.382 163.8 197.526 171.196 184.361 184.361C171.196 197.526 163.8 215.382 163.8 234C163.8 252.618 171.196 270.474 184.361 283.639C197.526 296.804 215.382 304.2 234 304.2C252.618 304.2 270.474 296.804 283.639 283.639C296.804 270.474 304.2 252.618 304.2 234C304.2 215.382 296.804 197.526 283.639 184.361C270.474 171.196 252.618 163.8 234 163.8Z" fill="#1F6586"/>
</svg>
