<svg width="480" height="480" viewBox="0 0 480 480" fill="none" xmlns="http://www.w3.org/2000/svg">
<path d="M426.667 0C440.812 0 454.377 5.61903 464.379 15.621C474.381 25.6229 480 39.1885 480 53.3333V426.667C480 440.812 474.381 454.377 464.379 464.379C454.377 474.381 440.812 480 426.667 480H53.3333C39.1885 480 25.6229 474.381 15.621 464.379C5.61903 454.377 0 440.812 0 426.667V53.3333C0 39.1885 5.61903 25.6229 15.621 15.621C25.6229 5.61903 39.1885 0 53.3333 0H426.667ZM413.333 413.333V272C413.333 248.944 404.174 226.832 387.871 210.529C371.568 194.226 349.456 185.067 326.4 185.067C303.733 185.067 277.333 198.933 264.533 219.733V190.133H190.133V413.333H264.533V281.867C264.533 261.333 281.067 244.533 301.6 244.533C311.501 244.533 320.997 248.467 327.999 255.468C335 262.469 338.933 271.965 338.933 281.867V413.333H413.333ZM103.467 148.267C115.348 148.267 126.743 143.547 135.145 135.145C143.547 126.743 148.267 115.348 148.267 103.467C148.267 78.6667 128.267 58.4 103.467 58.4C91.5142 58.4 80.0514 63.1481 71.5997 71.5997C63.1481 80.0514 58.4 91.5142 58.4 103.467C58.4 128.267 78.6667 148.267 103.467 148.267ZM140.533 413.333V190.133H66.6667V413.333H140.533Z" fill="#1F6586"/>
</svg>
